<?xml version="1.0" encoding="UTF-8"?>
<svg xmlns="http://www.w3.org/2000/svg" viewBox="0 0 1464 2400">
    <g stroke="none" fill="none">
      <path d="M1032.06931,1199.84648 C878.069306,1099.84648 1242.06931,1145.84648 1242.06931,1347.84648 C1242.06931,1676.84648 716.179769,1785.87669 614.069306,1909.84648 C536.796678,2003.66128 564.04497,2125.69547 640.198709,2182.89911 L640.18908,2182.90158 C634.429189,2124.94003 660.243151,2060.3836 719.261929,2009.16666 C997.899224,1767.36311 1314.69226,1950.97327 1004.42586,2149.13178 C1068.68816,2053.31336 942.673815,2000.63832 822.684061,2115.52009 C767.15066,2168.68942 767.773353,2260.63504 825.410135,2308.67627 C829.696022,2291.38797 840.037191,2273.59887 856.644951,2257.87778 C973.554672,2151.51012 1106.47365,2218.0972 976.293098,2306.7748 C1003.25606,2265.83855 950.383376,2248.06213 900.038469,2299.04626 C871.882909,2328.0621 878.131062,2377.91123 919.418099,2386.96956 C858.985388,2396.45683 826.18496,2368.49299 823.340074,2332.03124 L823.334896,2332.04233 C722.326437,2324.92898 661.859757,2272.5792 644.572274,2207.22872 C494.861462,2184.45937 331.069306,2106.03666 331.069306,1916.84648 C331.069306,1791.84648 578.160162,1668.93056 787.069306,1555.84648 C994.142153,1443.75641 1217.06931,1308.84648 1032.06931,1199.84648 Z" id="Combined-Shape" fill="#24272B" fill-rule="evenodd" transform="translate(786.5693, 1768.8535) scale(-1, 1) translate(-786.5693, -1768.8535)"></path>
      <path d="M708.311706,2250.73299 C711.045347,2253.02224 713.773837,2255.4032 716.493662,2257.87778 C719.623838,2260.84084 722.531402,2263.87736 725.217771,2266.97015 L680.601675,2308.44892 C678.455177,2305.14339 675.954446,2301.98777 673.100144,2299.04626 Z M871.924496,2026.29153 C891.092347,2046.2171 905.74292,2067.67118 915.958712,2089.64545 L791.360172,2205.47915 C790.459912,2188.01873 786.172928,2170.60241 778.511796,2154.44193 Z M1088.49475,1729.19579 C1134.6114,1760.63975 1173.80402,1792.49066 1201.0527,1824.61218 L1003.38821,2008.36653 C998.622195,1974.68149 984.510879,1940.73447 959.069306,1909.84648 C958.677356,1909.37063 958.279162,1908.89499 957.874777,1908.41956 Z" id="Combined-Shape" fill="#383C41" fill-rule="evenodd"></path>
      <path d="M732.835588,2276.71486 C733.265743,2277.33007 733.68773,2277.9467 734.101557,2278.56465 L684.224124,2314.83334 C684.060223,2314.49926 683.893032,2314.16621 683.722551,2313.83422 Z M929.282951,2128.2449 C929.840277,2130.67774 930.345101,2133.10981 930.79753,2135.53978 L788.932054,2238.69865 C789.271951,2237.01407 789.578597,2235.32233 789.852006,2233.62461 Z M1239.35381,1893.90247 C1240.56314,1899.06779 1241.37859,1904.23749 1241.77991,1909.41104 L997.993109,2086.6808 C999.187306,2082.48168 1000.24051,2078.22977 1001.14786,2073.93319 Z" id="Combined-Shape" fill="#383C41" fill-rule="evenodd"></path>
      <path d="M699.134019,2306.84648 C716.245131,2294.82138 723.134019,2272.79024 723.134019,2262.26828 C723.134019,2249.74212 711.558856,2235.21179 685.388921,2235.21179 C641.451318,2235.21179 582.429188,2272.95956 571.069306,2319.22948" id="Path-2" stroke="#101214" stroke-width="2" transform="translate(647.1017, 2277.2206) scale(-1, 1) translate(-647.1017, -2277.2206)"></path>
      <path d="M654.069306,2334.91996 C654.069306,2368.49005 701.415712,2391.85695 725.069306,2386.84648" id="Path-2" stroke="#101214" stroke-width="2" transform="translate(689.5693, 2361.2215) scale(-1, 1) translate(-689.5693, -2361.2215)"></path>
      <path d="M783.002734,2166.25874 C829.239278,2139.48437 859.069306,2084.44816 859.069306,2055.19467 C859.069306,2016.52058 826.753442,1977.84648 767.093386,1977.84648 C634.34976,1977.84648 508.069306,2084.84091 508.069306,2202.84648" id="Path-2" stroke="#101214" stroke-width="4" transform="translate(683.5693, 2090.3465) scale(-1, 1) translate(-683.5693, -2090.3465)"></path>
      <path d="M798.300185,2160.56731 C851.650043,2129.62804 886.069306,2066.03064 886.069306,2032.22661 C886.069306,1987.53655 848.781771,1942.84648 779.943244,1942.84648 C626.777522,1942.84648 481.069306,2066.48449 481.069306,2202.84648" id="Path-2" stroke="#101214" stroke-width="1" transform="translate(683.5693, 2072.8465) scale(-1, 1) translate(-683.5693, -2072.8465)"></path>
      <path d="M705.444661,2224.92409 C722.550678,2291.33445 794.42764,2329.07792 855.28314,2333.84648" id="Path-2" stroke="#101214" stroke-width="4" transform="translate(780.3639, 2279.3853) scale(-1, 1) translate(-780.3639, -2279.3853)"></path>
      <path d="M705.444661,2213.38529 C726.108173,2287.76911 812.9332,2330.04419 886.444661,2335.38529" id="Path-2" stroke="#101214" stroke-width="1" transform="translate(795.9447, 2274.3853) scale(-1, 1) translate(-795.9447, -2274.3853)"></path>
      <path d="M1068.43572,1204.84648 C1336.43572,1562.84648 409.435725,1691.84648 409.435725,1973.84648 C409.435725,2131.43004 598.07085,2223.84648 666.119596,2223.84648" id="Path-2" stroke="#101214" stroke-width="6" transform="translate(763.2525, 1714.3465) scale(-1, 1) translate(-763.2525, -1714.3465)"></path>
      <path d="M1161.25706,1548.84648 C912.25706,1713.84648 575.25706,1787.84648 575.069306,1961.45542 C574.967678,2062.06454 637.25706,2178.84648 833.25706,2216.84648" id="Path-2" stroke="#101214" stroke-width="1" transform="translate(868.1632, 1882.8465) scale(-1, 1) translate(-868.1632, -1882.8465)"></path>
      <path d="M987.069306,1018.77777 C1050.40264,1007.82449 1091.40264,1035.66407 1110.06931,1102.29653 C1093.40264,1180.94042 1069.06931,1223.45707 1037.06931,1229.84648 C989.069306,1239.43061 840.069306,1205.84648 708.069306,1205.84648 C469.069306,1205.84648 320.069306,1269.84648 334.069306,1392.84648 C287.069306,1018.84648 892.069306,1035.20769 987.069306,1018.77777 Z" id="Path-2" fill="#383C41" fill-rule="evenodd"></path>
      <path d="M496.068582,2186 C701.882126,2264.5082 891.427644,2261.92172 1020,2092.71462 C930.968297,2178.2169 758.068582,2261 496.068582,2186 Z" id="Path-2" fill="#383C41" fill-rule="evenodd" transform="translate(758.0343, 2164.2627) scale(-1, 1) translate(-758.0343, -2164.2627)"></path>
      <path d="M564.069306,2329.99055 C633.39938,2336.85022 723.678108,2328.03064 768.069306,2279.03295 C719.687888,2347.62971 634.895712,2341.26001 564.069306,2329.99055 Z" id="Path-2" fill="#383C41" fill-rule="evenodd" transform="translate(666.0693, 2308.033) scale(-1, 1) translate(-666.0693, -2308.033)"></path>
      <path d="M472.069306,0 C472.069306,238.578307 623.760555,498.390562 770.069306,720.976365 C948.773744,992.847121 1125.06931,1203.96053 1037.06931,1229.95968 C1037.06931,1231.95961 1265.06931,1158.96201 1320.06931,1143.9625 C1385.06931,1125.96309 1425.76657,1076.95875 1418.06931,936.969285 C1402.06931,645.978824 1421.06931,298.990199 1311.06931,0 C1089.06931,0 523.069306,0 472.069306,0 Z" id="Path-2" fill="#2E3236" fill-rule="evenodd"></path>
      <path d="M654.069306,2386.84648 C598.069306,2373.84648 581.069306,2356.84648 575.069306,2323.84648 C639.069306,2343.84648 610.069306,2369.84648 654.069306,2386.84648 Z" id="Path-2" fill="#24272B" fill-rule="evenodd"></path>
      <path d="M1044.3265,448.074881 C1056.35725,480.660756 1069.19772,514.754165 1084.43915,554.70082 C1090.85428,571.514394 1097.40904,588.621526 1106.10599,611.266656 C1105.61474,609.986344 1123.02057,655.290205 1127.72556,667.555761 C1144.91183,712.359072 1157.17809,744.641945 1168.68951,775.51681 C1198.08685,854.363586 1219.04651,914.955369 1234.28607,966.56549 C1252.00952,1026.5875 1261.51688,1073.21971 1262.45347,1108.04431 C1263.51405,1147.47888 1252.69508,1162.61511 1243.59804,1166.6718 L1225.83682,1172.16286 C1260.22877,1157.85381 1258.36784,1090.49426 1222.77732,969.963822 C1207.63229,918.673842 1186.75375,858.316563 1157.4456,779.709003 C1145.94999,748.876555 1133.69551,716.624674 1116.52158,671.853538 C1111.81909,659.594499 1094.42236,614.314314 1094.90382,615.569136 C1094.94147,615.66724 1094.9827,615.774589 1095.02397,615.882064 C1094.95649,615.706341 1094.91476,615.597675 1094.90382,615.569136 C1086.20396,592.916437 1079.64633,575.80182 1073.22751,558.978561 C1057.97182,518.99455 1045.11677,484.86242 1033.06923,452.231079 C960.977197,256.966291 918.462801,115.037108 902.069306,-1.13686838e-13 L914.069306,-1.13686838e-13 C930.310365,113.967428 972.510986,253.559072 1044.3265,448.074881 Z" id="Path" fill="#24272B" fill-rule="nonzero"></path>
      <path d="M650.069306,2258 C653.383015,2258 656.069306,2255.31371 656.069306,2252 C656.069306,2248.68629 653.383015,2246 650.069306,2246 C646.755598,2246 644.069306,2248.68629 644.069306,2252 C644.069306,2255.31371 646.755598,2258 650.069306,2258 Z M627.069306,2230 C628.726161,2230 630.069306,2228.65685 630.069306,2227 C630.069306,2225.34315 628.726161,2224 627.069306,2224 C625.412452,2224 624.069306,2225.34315 624.069306,2227 C624.069306,2228.65685 625.412452,2230 627.069306,2230 Z M582.069306,2220 C583.726161,2220 585.069306,2218.65685 585.069306,2217 C585.069306,2215.34315 583.726161,2214 582.069306,2214 C580.412452,2214 579.069306,2215.34315 579.069306,2217 C579.069306,2218.65685 580.412452,2220 582.069306,2220 Z M706.069306,2237 C707.726161,2237 709.069306,2235.65685 709.069306,2234 C709.069306,2232.34315 707.726161,2231 706.069306,2231 C704.412452,2231 703.069306,2232.34315 703.069306,2234 C703.069306,2235.65685 704.412452,2237 706.069306,2237 Z M526.569306,2262 C528.502303,2262 530.069306,2260.433 530.069306,2258.5 C530.069306,2256.567 528.502303,2255 526.569306,2255 C524.63631,2255 523.069306,2256.567 523.069306,2258.5 C523.069306,2260.433 524.63631,2262 526.569306,2262 Z M532.069306,2269 C533.173876,2269 534.069306,2268.10457 534.069306,2267 C534.069306,2265.89543 533.173876,2265 532.069306,2265 C530.964737,2265 530.069306,2265.89543 530.069306,2267 C530.069306,2268.10457 530.964737,2269 532.069306,2269 Z M735.069306,2132.5 C733.13631,2132.5 731.569306,2130.933 731.569306,2129 C731.569306,2127.067 733.13631,2125.5 735.069306,2125.5 C737.002303,2125.5 738.569306,2127.067 738.569306,2129 C738.569306,2130.933 737.002303,2132.5 735.069306,2132.5 Z M783.069306,1861 C784.726161,1861 786.069306,1859.65685 786.069306,1858 C786.069306,1856.34315 784.726161,1855 783.069306,1855 C781.412452,1855 780.069306,1856.34315 780.069306,1858 C780.069306,1859.65685 781.412452,1861 783.069306,1861 Z M1017.06931,2196 C1020.38301,2196 1023.06931,2193.31371 1023.06931,2190 C1023.06931,2186.68629 1020.38301,2184 1017.06931,2184 C1013.7556,2184 1011.06931,2186.68629 1011.06931,2190 C1011.06931,2193.31371 1013.7556,2196 1017.06931,2196 Z" id="Combined-Shape" fill="#2E3236" fill-rule="evenodd"></path>
    </g>
  </svg>
